# XSI Wavefront OBJ Export v3.0
# File Created: Sun Sep 22 03:24:00 2013
# XSI Version: 10.5.98.0
o chain_link_half
# Hierarchy (from self to top father)
g chain_link_half

#begin 20 vertices
v -0.098897 0.433309 -0.000000
v 0.098704 -0.000000 -0.200073
v 0.000000 0.000000 -0.107356
v 0.000000 0.266796 0.107356
v 0.098705 0.320417 0.200074
v -0.098705 0.320416 -0.200075
v -0.098705 0.320417 0.200074
v 0.000000 0.348798 -0.293501
v 0.000000 -0.000000 -0.293502
v 0.098705 -0.000000 0.200075
v -0.098705 -0.000000 0.200075
v 0.000000 0.000000 0.107357
v -0.098704 -0.000000 -0.200073
v 0.098705 0.320416 -0.200075
v 0.000000 0.266797 -0.107356
v 0.000000 0.514957 -0.000000
v 0.098897 0.433309 -0.000000
v 0.000000 0.332160 -0.000000
v 0.000000 0.348796 0.293500
v 0.000000 -0.000000 0.293502
#end 20 vertices

#begin 96 normals
vn 0.687420 0.000005 0.726260
vn 0.966215 0.170627 0.193172
vn 0.684657 0.000001 0.728866
vn 0.965739 0.169628 -0.196402
vn 0.735310 -0.329456 -0.592265
vn 0.999998 0.000002 -0.001782
vn 0.696554 0.336602 -0.633650
vn 0.999998 0.000001 0.001908
vn -0.999998 0.000002 -0.001782
vn -0.687420 0.000005 0.726260
vn -0.966215 0.170627 0.193172
vn -0.999998 0.000001 0.001908
vn -0.684657 0.000001 0.728866
vn -0.965739 0.169628 -0.196402
vn -0.966215 0.170627 0.193172
vn -0.735310 -0.329456 -0.592265
vn 0.960513 0.278222 0.002554
vn 0.696673 0.336670 0.633482
vn 0.720033 -0.693840 0.011745
vn 0.966215 0.170627 0.193172
vn 0.965739 0.169628 -0.196402
vn 0.636482 0.771291 0.000167
vn 0.730541 -0.341889 0.591119
vn 0.960513 0.278222 0.002554
vn -0.999998 0.000002 -0.001782
vn -0.965739 0.169628 -0.196402
vn -0.696554 0.336602 -0.633650
vn -0.999998 0.000001 0.001908
vn -0.636482 0.771291 0.000167
vn -0.960513 0.278222 0.002554
vn -0.696673 0.336670 0.633482
vn -0.960513 0.278222 0.002554
vn -0.720033 -0.693840 0.011745
vn -0.966215 0.170627 0.193172
vn -0.960513 0.278222 0.002554
vn -0.730541 -0.341889 0.591119
vn -0.720033 -0.693840 0.011745
vn -0.636482 0.771291 0.000167
vn -0.965739 0.169628 -0.196402
vn -0.960513 0.278222 0.002554
vn 0.960513 0.278222 0.002554
vn 0.720033 -0.693840 0.011745
vn 0.730541 -0.341889 0.591119
vn 0.965739 0.169628 -0.196402
vn 0.636482 0.771291 0.000167
vn 0.960513 0.278222 0.002554
vn 0.965739 0.169628 -0.196402
vn 0.696554 0.336602 -0.633650
vn 0.999998 0.000002 -0.001782
vn 0.687420 0.000005 0.726260
vn 0.696673 0.336670 0.633482
vn 0.966215 0.170627 0.193172
vn 0.999998 0.000001 0.001908
vn 0.684657 0.000001 0.728866
vn 0.730541 -0.341889 0.591119
vn 0.965739 0.169628 -0.196402
vn 0.966215 0.170627 0.193172
vn 0.735310 -0.329456 -0.592265
vn 0.720033 -0.693840 0.011745
vn 0.960513 0.278222 0.002554
vn 0.696673 0.336670 0.633482
vn 0.966215 0.170627 0.193172
vn 0.960513 0.278222 0.002554
vn 0.636482 0.771291 0.000167
vn 0.999998 0.000001 0.001908
vn 0.687435 0.000002 -0.726246
vn 0.696554 0.336602 -0.633650
vn 0.965739 0.169628 -0.196402
vn 0.999998 0.000002 -0.001782
vn 0.684657 -0.000002 -0.728866
vn 0.735310 -0.329456 -0.592265
vn 0.966215 0.170627 0.193172
vn -0.696673 0.336670 0.633482
vn -0.687420 0.000005 0.726260
vn -0.966215 0.170627 0.193172
vn -0.730541 -0.341889 0.591119
vn -0.684657 0.000001 0.728866
vn -0.965739 0.169628 -0.196402
vn -0.696554 0.336602 -0.633650
vn -0.965739 0.169628 -0.196402
vn -0.636482 0.771291 0.000167
vn -0.965739 0.169628 -0.196402
vn -0.730541 -0.341889 0.591119
vn -0.960513 0.278222 0.002554
vn -0.684657 -0.000002 -0.728866
vn -0.735310 -0.329456 -0.592265
vn -0.999998 0.000002 -0.001782
vn -0.687435 0.000002 -0.726246
vn -0.696554 0.336602 -0.633650
vn -0.999998 0.000001 0.001908
vn -0.966215 0.170627 0.193172
vn -0.720033 -0.693840 0.011745
vn -0.735310 -0.329456 -0.592265
vn -0.696673 0.336670 0.633482
vn -0.960513 0.278222 0.002554
vn -0.966215 0.170627 0.193172
#end 96 vertex normals

#begin texture vertices
vt 0.830954 0.625774 0.000000
vt 0.858315 0.567680 0.000000
vt 0.845104 0.567680 0.000000
vt 0.816812 0.604506 0.000000
vt 0.803592 0.612205 0.000000
vt 0.858315 0.612205 0.000000
vt 0.803592 0.612205 0.000000
vt 0.871527 0.615745 0.000000
vt 0.871527 0.567680 0.000000
vt 0.803592 0.567680 0.000000
vt 0.803592 0.567680 0.000000
vt 0.816812 0.567680 0.000000
vt 0.858315 0.567680 0.000000
vt 0.858315 0.612205 0.000000
vt 0.845104 0.604506 0.000000
vt 0.830954 0.637236 0.000000
vt 0.830954 0.625774 0.000000
vt 0.830954 0.611386 0.000000
vt 0.790381 0.615745 0.000000
vt 0.790381 0.567680 0.000000
#end 20 texture vertices

#begin 32 faces
f 19/19/51 20/20/1 5/5/2 
f 15/15/55 3/3/3 14/14/4 
f 11/11/9 20/20/10 7/7/11 
f 13/13/12 3/3/13 6/6/14 
f 12/12/70 4/4/5 10/10/6 
f 9/9/66 8/8/7 2/2/8 
f 7/7/15 4/4/16 11/11/25 
f 6/6/26 8/8/27 13/13/28 
f 5/5/62 17/17/17 19/19/18 
f 4/4/58 18/18/19 5/5/20 
f 17/17/41 15/15/43 14/14/44 
f 16/16/45 14/14/47 8/8/48 
f 17/17/46 14/14/21 16/16/22 
f 18/18/42 15/15/23 17/17/24 
f 5/5/57 18/18/59 17/17/60 
f 19/19/61 17/17/63 16/16/64 
f 2/2/65 8/8/67 14/14/68 
f 10/10/69 4/4/71 5/5/72 
f 14/14/56 3/3/54 2/2/53 
f 5/5/52 20/20/50 10/10/49 
f 16/16/29 1/1/30 19/19/31 
f 1/1/32 18/18/33 7/7/34 
f 1/1/35 15/15/36 18/18/37 
f 16/16/38 6/6/39 1/1/40 
f 7/7/75 20/20/74 19/19/73 
f 6/6/78 3/3/77 15/15/76 
f 8/8/79 6/6/80 16/16/81 
f 6/6/82 15/15/83 1/1/84 
f 11/11/87 4/4/86 12/12/85 
f 13/13/90 8/8/89 9/9/88 
f 7/7/91 18/18/92 4/4/93 
f 19/19/94 1/1/95 7/7/96 
#end 32 faces
