# XSI Wavefront OBJ Export v3.0
# File Created: Sun Sep 22 03:24:00 2013
# XSI Version: 10.5.98.0
o chain_link_broken
# Hierarchy (from self to top father)
g chain_link_broken

#begin 24 vertices
v 0.094608 -0.227080 -0.287289
v 0.000000 -0.211563 -0.375470
v 0.000000 -0.242487 -0.199750
v -0.094608 -0.227082 -0.287289
v -0.094791 -0.506539 0.116487
v 0.000000 -0.411109 0.101854
v 0.094792 -0.506540 0.116490
v 0.000000 -0.584295 0.128408
v 0.000000 -0.368633 0.382336
v 0.094613 -0.354333 0.291375
v 0.000000 -0.318124 0.197624
v -0.094785 0.376199 0.000000
v 0.000000 0.288482 -0.285395
v 0.094612 0.259951 -0.197747
v 0.000000 0.208869 -0.110734
v 0.094612 0.257100 0.197950
v 0.000000 0.285021 0.285692
v 0.000000 0.281548 0.000000
v 0.094785 0.376199 0.000000
v 0.000000 0.452749 0.000000
v -0.094613 -0.354333 0.291375
v 0.000000 0.207100 0.110773
v -0.094612 0.257100 0.197950
v -0.094612 0.259951 -0.197747
#end 24 vertices

#begin 132 normals
vn 0.000012 -0.151549 -0.988450
vn 0.000012 -0.151549 -0.988450
vn 0.000007 -0.984865 -0.173321
vn 0.000007 -0.984865 -0.173321
vn 0.691340 -0.228433 0.685469
vn 0.973734 0.165841 0.156009
vn 0.688923 -0.132569 0.712608
vn 0.973432 0.170334 -0.153025
vn 0.725866 -0.375550 -0.576264
vn 0.969965 -0.121175 0.210915
vn 0.999998 -0.001420 -0.001166
vn 0.685104 0.393622 -0.612939
vn 0.957354 0.288907 0.002210
vn 0.685094 0.379479 0.621805
vn 0.714394 -0.699618 0.013265
vn 0.973734 0.165841 0.156009
vn 0.973432 0.170334 -0.153025
vn 0.630387 0.776281 0.000814
vn 0.720430 -0.409298 0.559871
vn 0.957354 0.288907 0.002210
vn 0.942528 -0.256699 0.213886
vn 0.691340 -0.228433 0.685469
vn 0.666330 0.554338 -0.498711
vn 0.969965 -0.121175 0.210915
vn 0.969965 -0.121175 0.210915
vn 0.942528 -0.256699 0.213886
vn 0.666330 0.554338 -0.498711
vn 0.727357 0.204258 -0.655157
vn 0.691340 -0.228433 0.685469
vn 0.577074 -0.622484 0.528677
vn 0.942528 -0.256699 0.213886
vn 0.969965 -0.121175 0.210915
vn 0.000012 -0.151575 -0.988446
vn 0.000012 -0.151549 -0.988450
vn 0.000012 -0.151520 -0.988454
vn 0.000012 -0.151549 -0.988450
vn 0.000010 -0.984865 -0.173321
vn 0.000007 -0.984865 -0.173321
vn 0.000005 -0.984865 -0.173321
vn 0.000007 -0.984865 -0.173321
vn 0.957354 0.288907 0.002210
vn 0.714394 -0.699618 0.013265
vn 0.720430 -0.409298 0.559871
vn 0.973432 0.170334 -0.153025
vn 0.630387 0.776281 0.000814
vn 0.957354 0.288907 0.002210
vn 0.973432 0.170334 -0.153025
vn 0.685104 0.393622 -0.612939
vn 0.969965 -0.121175 0.210915
vn 0.691340 -0.228433 0.685469
vn 0.685094 0.379479 0.621805
vn 0.973734 0.165841 0.156009
vn 0.999998 -0.001420 -0.001166
vn 0.688923 -0.132569 0.712608
vn 0.720430 -0.409298 0.559871
vn 0.973432 0.170334 -0.153025
vn 0.973734 0.165841 0.156009
vn 0.725866 -0.375550 -0.576264
vn 0.714394 -0.699618 0.013265
vn 0.957354 0.288907 0.002210
vn 0.685094 0.379479 0.621805
vn 0.973734 0.165841 0.156009
vn 0.957354 0.288907 0.002210
vn 0.630387 0.776281 0.000814
vn 0.685104 0.393622 -0.612939
vn 0.973432 0.170334 -0.153025
vn 0.999998 -0.001420 -0.001166
vn 0.687363 0.128762 -0.714809
vn 0.969965 -0.121175 0.210915
vn 0.727357 0.204258 -0.655157
vn 0.725866 -0.375550 -0.576264
vn 0.973734 0.165841 0.156009
vn -0.685094 0.379479 0.621805
vn -0.691342 -0.228434 0.685466
vn -0.973734 0.165841 0.156009
vn -0.720430 -0.409298 0.559871
vn -0.688924 -0.132569 0.712607
vn -0.973432 0.170334 -0.153025
vn -0.727357 0.204258 -0.655157
vn -0.725866 -0.375550 -0.576264
vn -0.969964 -0.121181 0.210915
vn -0.973432 0.170334 -0.153025
vn -0.999998 -0.001421 -0.001162
vn -0.685104 0.393622 -0.612939
vn -0.969964 -0.121181 0.210915
vn -0.666327 0.554343 -0.498711
vn -0.727357 0.204258 -0.655157
vn -0.691342 -0.228434 0.685466
vn -0.942532 -0.256688 0.213878
vn -0.969964 -0.121181 0.210915
vn -0.973734 0.165841 0.156009
vn -0.957354 0.288907 0.002210
vn -0.685094 0.379479 0.621805
vn -0.725866 -0.375550 -0.576264
vn -0.714394 -0.699618 0.013265
vn -0.973734 0.165841 0.156009
vn -0.957354 0.288907 0.002210
vn -0.720430 -0.409298 0.559871
vn -0.973432 0.170334 -0.153025
vn -0.630387 0.776281 0.000814
vn -0.973432 0.170334 -0.153025
vn -0.685104 0.393622 -0.612939
vn -0.957354 0.288907 0.002210
vn -0.973432 0.170334 -0.153025
vn -0.630387 0.776281 0.000814
vn -0.714394 -0.699618 0.013265
vn -0.720430 -0.409298 0.559871
vn -0.957354 0.288907 0.002210
vn -0.973734 0.165841 0.156009
vn -0.714394 -0.699618 0.013265
vn -0.957354 0.288907 0.002210
vn -0.685094 0.379479 0.621805
vn -0.957354 0.288907 0.002210
vn -0.630387 0.776281 0.000814
vn -0.685104 0.393622 -0.612939
vn -0.999998 -0.001421 -0.001162
vn -0.687366 0.128761 -0.714806
vn -0.969964 -0.121181 0.210915
vn -0.725866 -0.375550 -0.576264
vn -0.973734 0.165841 0.156009
vn -0.973432 0.170334 -0.153025
vn -0.688924 -0.132569 0.712607
vn -0.999998 -0.001421 -0.001162
vn -0.973734 0.165841 0.156009
vn -0.691342 -0.228434 0.685466
vn -0.969964 -0.121181 0.210915
vn -0.577091 -0.622474 0.528669
vn -0.942532 -0.256688 0.213878
vn -0.691342 -0.228434 0.685466
vn -0.942532 -0.256688 0.213878
vn -0.666327 0.554343 -0.498711
vn -0.969964 -0.121181 0.210915
#end 132 vertex normals

#begin texture vertices
vt 0.035225 0.541398 0.000000
vt 0.017006 0.416394 0.000000
vt 0.017427 0.541156 0.000000
vt 0.034944 0.415902 0.000000
vt 0.053228 0.541413 0.000000
vt 0.017562 0.398526 0.000000
vt 0.035225 0.541398 0.000000
vt 0.035436 0.397964 0.000000
vt 0.122795 0.556223 0.000000
vt 0.072265 0.396684 0.000000
vt 0.106577 0.546824 0.000000
vt 0.072965 0.415349 0.000000
vt 0.122795 0.556223 0.000000
vt 0.054289 0.415626 0.000000
vt 0.055457 0.398734 0.000000
vt 0.137892 0.564034 0.000000
vt 0.144869 0.519892 0.000000
vt 0.127784 0.526399 0.000000
vt 0.109118 0.530339 0.000000
vt 0.053870 0.451644 0.000000
vt 0.017042 0.472382 0.000000
vt 0.034359 0.474877 0.000000
vt 0.052269 0.480680 0.000000
vt 0.084123 0.453936 0.000000
vt 0.095946 0.442837 0.000000
vt 0.060729 0.468622 0.000000
vt 0.053870 0.451644 0.000000
vt 0.048461 0.437648 0.000000
vt 0.127784 0.526399 0.000000
vt 0.074495 0.468679 0.000000
vt 0.084123 0.453936 0.000000
vt 0.034359 0.474877 0.000000
#end 32 texture vertices

#begin 44 faces
f 8/15/35 5/10/1 7/14/2 
f 4/8/39 2/4/3 3/6/4 
f 17/25/51 9/17/5 16/24/6 
f 15/23/55 3/5/7 14/22/8 
f 11/19/70 22/30/9 10/18/10 
f 14/22/66 1/1/11 13/21/12 
f 10/18/25 6/11/27 11/19/28 
f 9/17/29 7/13/31 10/18/32 
f 16/24/62 19/27/13 17/25/14 
f 22/30/58 18/26/15 16/24/16 
f 19/27/41 15/23/43 14/22/44 
f 20/28/45 14/22/47 13/21/48 
f 19/27/46 14/22/17 20/28/18 
f 18/26/42 15/23/19 19/27/20 
f 16/24/57 18/26/59 19/27/60 
f 17/25/61 19/27/63 20/28/64 
f 13/21/65 1/1/67 2/3/68 
f 10/18/69 22/30/71 16/24/72 
f 14/22/56 3/5/54 1/1/53 
f 16/24/52 9/17/50 10/18/49 
f 3/6/40 2/4/38 1/2/37 
f 7/14/36 5/10/34 6/12/33 
f 8/16/30 7/13/21 9/17/22 
f 7/13/26 6/11/23 10/18/24 
f 23/31/75 9/17/74 17/25/73 
f 24/32/78 3/5/77 15/23/76 
f 21/29/81 22/30/80 11/19/79 
f 13/21/84 4/7/83 24/32/82 
f 11/19/87 6/11/86 21/29/85 
f 21/29/90 5/9/89 9/17/88 
f 17/25/93 12/20/92 23/31/91 
f 23/31/96 18/26/95 22/30/94 
f 24/32/99 15/23/98 12/20/97 
f 13/21/102 24/32/101 20/28/100 
f 20/28/105 24/32/104 12/20/103 
f 12/20/108 15/23/107 18/26/106 
f 12/20/111 18/26/110 23/31/109 
f 20/28/114 12/20/113 17/25/112 
f 2/3/117 4/7/116 13/21/115 
f 23/31/120 22/30/119 21/29/118 
f 4/7/123 3/5/122 24/32/121 
f 21/29/126 9/17/125 23/31/124 
f 9/17/129 5/9/128 8/16/127 
f 21/29/132 6/11/131 5/9/130 
#end 44 faces
